<svg version="1.1" xmlns="http://www.w3.org/2000/svg" xmlns:xlink="http://www.w3.org/1999/xlink" x="0px" y="0px" viewBox="0 0 511.999 511.999" xml:space="preserve">
  <g>
    <path d="M216.053,219.82c-16.177,0-29.339,13.162-29.339,29.339s13.162,29.338,29.339,29.338s29.339-13.161,29.339-29.338
      S232.231,219.82,216.053,219.82z M216.053,262.073c-7.122,0-12.915-5.793-12.915-12.914c0-7.122,5.793-12.915,12.915-12.915
      c7.122,0,12.915,5.793,12.915,12.915C228.968,256.279,223.175,262.073,216.053,262.073z"/>
  </g>
  <g>
    <path d="M262.081,79.237c-1.559-1.753-3.792-2.756-6.137-2.756h-79.779c-2.346,0-4.579,1.003-6.137,2.756
      c-1.558,1.754-2.293,4.089-2.018,6.419l6.453,54.713c1.529,12.958,7.805,24.794,17.675,33.327l18.546,16.036
      c1.542,1.334,3.456,2,5.371,2c1.915,0,3.829-0.667,5.371-2l18.546-16.035c9.87-8.534,16.146-20.37,17.675-33.327l6.454-54.714
      C264.374,83.325,263.639,80.99,262.081,79.237z M241.334,138.446c-1.048,8.873-5.347,16.982-12.106,22.825l-13.174,11.392
      l-13.174-11.392c-6.76-5.844-11.059-13.951-12.106-22.826l-0.373-3.166c8.38-1.878,16.978-2.842,25.653-2.842
      c9.826,0,16.139,1.149,25.536,3.836L241.334,138.446z M246.705,92.905l-3.167,26.851c-8.289-2.263-16.189-3.745-27.484-3.745
      c-9.314,0-18.556,0.966-27.587,2.869l-3.064-25.976L246.705,92.905L246.705,92.905z"/>
  </g>
  <g>
    <path d="M264.097,412.661l-6.454-54.712c-1.529-12.959-7.805-24.795-17.675-33.328l-18.546-16.036
      c-3.083-2.667-7.658-2.667-10.742,0l-18.546,16.035c-9.87,8.534-16.146,20.37-17.675,33.328l-1.232,10.446
      c-0.008,0.072-0.02,0.146-0.025,0.217l-5.196,44.05c-0.275,2.33,0.46,4.666,2.018,6.419c1.561,1.754,3.794,2.757,6.14,2.757
      h79.776c2.347,0,4.579-1.003,6.137-2.756C263.637,417.326,264.372,414.991,264.097,412.661z M190.773,359.872
      c1.048-8.875,5.347-16.981,12.106-22.825l13.174-11.392l13.174,11.392c6.759,5.844,11.059,13.951,12.106,22.827l0.373,3.164
      c-8.38,1.878-16.978,2.843-25.653,2.843c-8.674,0-17.272-0.964-25.653-2.843L190.773,359.872z M185.402,405.412l3.064-25.976
      c9.033,1.903,18.276,2.869,27.587,2.869c9.314,0,18.556-0.966,27.587-2.869l3.064,25.976H185.402z"/>
  </g>
  <g>
    <path d="M386.014,203.17c-1.73-1.556-4.035-2.307-6.358-2.062l-49.414,5.233c-4.51,0.477-7.778,4.521-7.301,9.031
      c0.395,3.743,3.243,6.623,6.782,7.224c2.017,8.669,3.054,17.576,3.054,26.565c0,8.673-0.965,17.272-2.842,25.653l-3.167-0.373
      c-8.873-1.047-16.98-5.347-22.827-12.107l-11.39-13.173l11.391-13.174c2.966-3.434,2.59-8.619-0.842-11.587
      c-3.43-2.965-8.616-2.59-11.583,0.842l-16.035,18.546c-2.667,3.083-2.666,7.658,0.001,10.742l16.035,18.546
      c8.535,9.87,20.37,16.146,33.327,17.675l54.714,6.454c0.322,0.038,0.643,0.057,0.962,0.057c2,0,3.945-0.731,5.456-2.075
      c1.753-1.559,2.756-3.792,2.756-6.137v-79.776C388.732,206.945,387.745,204.727,386.014,203.17z M372.309,279.81L372.309,279.81
      l-25.977-3.064c1.903-9.033,2.87-18.276,2.87-27.587c-0.001-9.455-0.994-18.837-2.955-28.001l26.062-2.76V279.81z"/>
  </g>
  <g>
    <path d="M156.627,243.785l-16.037-18.543c-8.534-9.87-20.37-16.147-33.328-17.675l-54.713-6.453
      c-2.331-0.283-4.664,0.46-6.417,2.018c-1.753,1.559-2.756,3.792-2.756,6.137v79.776c0,2.346,1.003,4.579,2.756,6.137
      c1.512,1.344,3.456,2.075,5.456,2.075c0.32,0,0.641-0.019,0.962-0.057l44.553-5.255c0.009-0.001,0.016-0.001,0.025-0.003
      l10.134-1.196c12.958-1.529,24.795-7.805,33.328-17.676l16.037-18.545C159.296,251.444,159.296,246.869,156.627,243.785z
       M59.8,279.81v-61.302l25.976,3.063c-1.903,9.032-2.869,18.273-2.869,27.588c0.001,9.313,0.967,18.556,2.87,27.587L59.8,279.81z
       M128.166,262.332c-5.845,6.76-13.952,11.06-22.827,12.107l-3.165,0.373c-1.878-8.38-2.842-16.977-2.842-25.653
      c0-8.676,0.965-17.274,2.842-25.655l3.165,0.373c8.873,1.047,16.982,5.347,22.826,12.107c0.001,0,0.001,0,0.001,0l11.391,13.174
      L128.166,262.332z"/>
  </g>
  <g>
    <path d="M503.686,462.472c-15.138,0-27.543-11.917-28.332-26.862c0.091-0.491,0.144-0.994,0.144-1.512v-9.963
      c0.123-0.565,0.192-1.15,0.192-1.751s-0.069-1.186-0.192-1.751v-39.122c0.123-0.565,0.192-1.15,0.192-1.751
      s-0.069-1.186-0.192-1.751v-8.784c57.303-85.504,46.241-199.718-26.881-272.84c-49.904-49.904-121.235-72.308-190.81-59.924
      c-0.522,0.093-1.022,0.238-1.499,0.419c-13.047-2.469-26.501-3.776-40.256-3.776c-4.536,0-8.212,3.676-8.212,8.212
      c0,4.536,3.676,8.212,8.212,8.212c110.076,0,199.629,89.553,199.629,199.629c0,110.075-89.553,199.628-199.629,199.628
      S16.424,359.233,16.424,249.159c0-82.307,49.408-155.145,125.875-185.566c4.214-1.676,6.272-6.452,4.594-10.666
      c-1.675-4.216-6.455-6.27-10.666-4.594c-39.734,15.808-73.636,42.828-98.037,78.14C13.206,162.628,0,205.051,0,249.159
      c0,119.132,96.921,216.052,216.053,216.052c13.629,0,26.963-1.282,39.899-3.707c13.139,2.456,26.487,3.692,39.83,3.692
      c18.821,0,37.629-2.44,55.819-7.276c7.938,12.59,21.96,20.976,37.911,20.976h114.172c4.536,0,8.212-3.676,8.212-8.212
      S508.221,462.472,503.686,462.472z M298.771,448.738c16.433-6.836,31.848-15.638,45.945-26.122v11.482
      c0,2.879,0.284,5.692,0.805,8.421C330.249,446.421,314.53,448.506,298.771,448.738z M408.856,151.727
      c-6.226-12.268-13.589-23.862-21.948-34.651h0.68c25.952,0,48.714,13.904,61.24,34.651H408.856z M428.793,286.956
      c1.71-9.656,2.765-19.536,3.143-29.585h27.139v29.585H428.793z M459.075,303.379v26.168h-42.488
      c3.48-8.647,6.423-17.566,8.772-26.722c0.916,0.354,1.909,0.554,2.949,0.554H459.075z M431.936,240.947
      c-0.362-9.64-1.356-19.119-2.945-28.4h30.085v28.4H431.936z M459.075,196.124h-33.562c-2.431-9.595-5.51-18.934-9.179-27.973
      h39.755c1.933,6.472,2.986,13.32,2.986,20.413V196.124z M409.163,345.973h49.912v18.755c-0.581,1.72-0.562,3.56,0,5.238v1.582
      h-65.079C399.613,363.407,404.686,354.866,409.163,345.973z M361.141,409.115c7.244-6.578,14.033-13.648,20.332-21.142h77.602
      v26.2h-97.934V409.115z M389.513,462.472c-15.645,0-28.373-12.729-28.373-28.374v-3.502h97.934v1.772
      c-0.119,0.558-0.186,1.137-0.186,1.73c0,10.759,3.81,20.643,10.156,28.374H389.513z M469.332,156.286
      c-12.897-32.545-44.666-55.633-81.745-55.633h-14.758c-20.688-21.829-45.873-39.349-74.055-51.073
      c51.446,0.788,101.22,21.408,138.229,58.42c60.975,60.975,75.253,152.869,38.546,228.278c-0.016-0.09-0.032-0.18-0.051-0.268
      V188.564c0-10.886-2.004-21.309-5.637-30.939C469.724,157.159,469.545,156.713,469.332,156.286z"/>
  </g>
</svg>